<?xml version="1.0" encoding="utf-8"?>
<!-- Uploaded to: SVG Repo, www.svgrepo.com, Generator: SVG Repo Mixer Tools -->
<svg width="800px" height="800px" viewBox="0 0 1024 1024" class="icon"  version="1.1" xmlns="http://www.w3.org/2000/svg"><path d="M771.676772 844.966484l-493.818868-2.409202C155.877326 826.595933 63.123554 722.814917 63.123554 597.698178c0-130.716368 102.592286-238.521254 231.509687-246.711313 49.19257-103.481018 153.09031-169.576911 268.529285-169.576911 163.496056 0 296.588862 132.64332 297.338346 295.968388 60.968276 35.243157 98.267394 99.284112 98.267394 170.402163 0 97.314157-71.032044 179.008943-165.167037 194.371318l-21.924457 2.814661z m-459.914953-43.849937l458.661718-0.48225c81.031308-4.62489 144.493769-71.770266 144.493768-152.854816 0-59.084327-33.145216-111.895308-86.501928-137.82418l-12.921432-6.284608 0.888732-19.292047c0.127986-1.87371 0.267234-3.736158 0.267234-5.63137 0-139.772633-113.715776-253.488409-253.488409-253.488409-102.463276 0-194.264834 61.086022-233.875886 155.627498l-5.598605 13.370918-14.495144 0.086007c-111.499064 0.653239-202.219399 91.876302-202.2194 203.353864 0 108.704881 85.142208 197.830003 193.825588 202.904379l10.963764 0.515014z" fill="#22C67F" /><path d="M532.875998 390.961396L370.321916 553.516502l34.921657 34.921657 102.935287-102.935287V711.5317h49.385061V485.502872l102.934263 102.935287 34.93292-34.921657z" fill="#74E8AE" /></svg>